<svg xmlns="http://www.w3.org/2000/svg" xmlns:xlink="http://www.w3.org/1999/xlink" width="1366" zoomAndPan="magnify" viewBox="0 0 1024.5 576" height="768" preserveAspectRatio="xMidYMid meet" version="1.0"><defs><g/><clipPath id="d01978e958"><path d="M 0 0.140625 L 1024 0.140625 L 1024 575.859375 L 0 575.859375 Z M 0 0.140625 " clip-rule="nonzero"/></clipPath><clipPath id="151c93e985"><path d="M 638 0.140625 L 905 0.140625 L 905 513 L 638 513 Z M 638 0.140625 " clip-rule="nonzero"/></clipPath><clipPath id="f43ba08d30"><path d="M 930 401 L 966.550781 401 L 966.550781 575.859375 L 930 575.859375 Z M 930 401 " clip-rule="nonzero"/></clipPath><clipPath id="3362adc47d"><path d="M 57.996094 401 L 94 401 L 94 575.859375 L 57.996094 575.859375 Z M 57.996094 401 " clip-rule="nonzero"/></clipPath></defs><g clip-path="url(#d01978e958)"><path fill="#ffffff" d="M 0 0.140625 L 1024 0.140625 L 1024 575.859375 L 0 575.859375 Z M 0 0.140625 " fill-opacity="1" fill-rule="nonzero"/><path fill="#ffffff" d="M 0 0.140625 L 1024 0.140625 L 1024 575.859375 L 0 575.859375 Z M 0 0.140625 " fill-opacity="1" fill-rule="nonzero"/></g><path fill="#f6b11f" d="M 293.382812 514.1875 L 119.964844 514.1875 L 119.964844 26.730469 L 293.382812 26.730469 L 293.382812 514.1875 " fill-opacity="1" fill-rule="nonzero"/><path fill="#f7e1cb" d="M 284.539062 368.214844 L 128.808594 368.214844 L 128.808594 38.238281 L 284.539062 38.238281 L 284.539062 368.214844 " fill-opacity="1" fill-rule="nonzero"/><path fill="#cac9c9" d="M 251.800781 436.34375 C 251.800781 461.261719 231.59375 481.457031 206.671875 481.457031 C 181.753906 481.457031 161.554688 461.261719 161.554688 436.34375 C 161.554688 411.425781 181.753906 391.222656 206.671875 391.222656 C 231.59375 391.222656 251.800781 411.425781 251.800781 436.34375 " fill-opacity="1" fill-rule="nonzero"/><path fill="#1a1816" d="M 235.675781 436.34375 C 235.675781 452.359375 222.691406 465.34375 206.671875 465.34375 C 190.65625 465.34375 177.671875 452.359375 177.671875 436.34375 C 177.671875 420.320312 190.65625 407.34375 206.671875 407.34375 C 222.691406 407.34375 235.675781 420.320312 235.675781 436.34375 " fill-opacity="1" fill-rule="nonzero"/><path fill="#ecbc8f" d="M 142.527344 82.441406 C 142.527344 82.441406 150.539062 81.589844 162.574219 80.992188 C 168.589844 80.667969 175.601562 80.398438 183.117188 80.210938 C 186.882812 80.140625 190.765625 80.003906 194.707031 79.992188 C 198.660156 79.964844 202.660156 79.933594 206.671875 79.90625 C 210.683594 79.933594 214.695312 79.964844 218.640625 79.992188 C 222.589844 79.992188 226.472656 80.140625 230.226562 80.210938 C 237.746094 80.390625 244.757812 80.65625 250.78125 80.984375 C 262.808594 81.589844 270.820312 82.441406 270.820312 82.441406 C 270.820312 82.441406 262.808594 83.292969 250.78125 83.894531 C 244.757812 84.222656 237.746094 84.5 230.226562 84.667969 C 226.472656 84.738281 222.589844 84.886719 218.640625 84.886719 C 214.695312 84.914062 210.683594 84.945312 206.671875 84.976562 C 202.660156 84.945312 198.660156 84.914062 194.707031 84.886719 C 190.765625 84.875 186.882812 84.738281 183.117188 84.667969 C 175.601562 84.488281 168.589844 84.210938 162.574219 83.886719 C 150.539062 83.292969 142.527344 82.441406 142.527344 82.441406 " fill-opacity="1" fill-rule="nonzero"/><path fill="#ecbc8f" d="M 142.527344 128.324219 C 142.527344 128.324219 150.539062 127.472656 162.574219 126.878906 C 168.589844 126.550781 175.601562 126.285156 183.117188 126.097656 C 186.882812 126.035156 190.765625 125.886719 194.707031 125.878906 C 198.660156 125.847656 202.660156 125.820312 206.671875 125.789062 C 210.683594 125.820312 214.695312 125.847656 218.640625 125.878906 C 222.589844 125.878906 226.472656 126.027344 230.226562 126.097656 C 237.746094 126.273438 244.757812 126.542969 250.78125 126.867188 C 262.808594 127.472656 270.820312 128.324219 270.820312 128.324219 C 270.820312 128.324219 262.808594 129.175781 250.78125 129.78125 C 244.757812 130.105469 237.746094 130.382812 230.226562 130.5625 C 226.472656 130.621094 222.589844 130.769531 218.640625 130.769531 C 214.695312 130.800781 210.683594 130.828125 206.671875 130.859375 C 202.660156 130.828125 198.660156 130.800781 194.707031 130.769531 C 190.765625 130.761719 186.882812 130.621094 183.117188 130.550781 C 175.601562 130.375 168.589844 130.097656 162.574219 129.769531 C 150.539062 129.175781 142.527344 128.324219 142.527344 128.324219 " fill-opacity="1" fill-rule="nonzero"/><path fill="#ecbc8f" d="M 142.527344 220.46875 C 142.527344 220.46875 150.539062 219.628906 162.574219 219.023438 C 168.589844 218.695312 175.601562 218.429688 183.117188 218.25 C 186.882812 218.183594 190.765625 218.042969 194.707031 218.035156 C 198.660156 217.992188 202.660156 217.972656 206.671875 217.945312 C 210.683594 217.964844 214.695312 217.992188 218.640625 218.023438 C 222.589844 218.023438 226.472656 218.171875 230.226562 218.242188 C 237.746094 218.417969 244.757812 218.6875 250.78125 219.015625 C 262.808594 219.617188 270.820312 220.46875 270.820312 220.46875 C 270.820312 220.46875 262.808594 221.332031 250.78125 221.925781 C 244.757812 222.261719 237.746094 222.53125 230.226562 222.707031 C 226.472656 222.765625 222.589844 222.925781 218.640625 222.925781 C 214.695312 222.945312 210.683594 222.976562 206.671875 223.003906 C 202.660156 222.976562 198.660156 222.945312 194.707031 222.914062 C 190.765625 222.90625 186.882812 222.765625 183.117188 222.699219 C 175.601562 222.519531 168.589844 222.253906 162.574219 221.925781 C 150.539062 221.320312 142.527344 220.46875 142.527344 220.46875 " fill-opacity="1" fill-rule="nonzero"/><path fill="#ecbc8f" d="M 142.527344 174.585938 C 142.527344 174.585938 150.539062 173.742188 162.574219 173.140625 C 168.589844 172.8125 175.601562 172.546875 183.117188 172.355469 C 186.882812 172.296875 190.765625 172.148438 194.707031 172.140625 C 198.660156 172.109375 202.660156 172.089844 206.671875 172.050781 C 210.683594 172.078125 214.695312 172.109375 218.640625 172.140625 C 222.589844 172.140625 226.472656 172.289062 230.226562 172.355469 C 237.746094 172.535156 244.757812 172.800781 250.78125 173.128906 C 262.808594 173.734375 270.820312 174.585938 270.820312 174.585938 C 270.820312 174.585938 262.808594 175.4375 250.78125 176.042969 C 244.757812 176.367188 237.746094 176.644531 230.226562 176.824219 C 226.472656 176.882812 222.589844 177.042969 218.640625 177.042969 C 214.695312 177.0625 210.683594 177.089844 206.671875 177.121094 C 202.660156 177.089844 198.660156 177.0625 194.707031 177.03125 C 190.765625 177.023438 186.882812 176.882812 183.117188 176.8125 C 175.601562 176.636719 168.589844 176.367188 162.574219 176.042969 C 150.539062 175.4375 142.527344 174.585938 142.527344 174.585938 " fill-opacity="1" fill-rule="nonzero"/><path fill="#ecbc8f" d="M 142.527344 268.195312 C 142.527344 268.195312 150.539062 267.355469 162.574219 266.75 C 168.589844 266.421875 175.601562 266.15625 183.117188 265.96875 C 186.882812 265.910156 190.765625 265.761719 194.707031 265.75 C 198.660156 265.730469 202.660156 265.699219 206.671875 265.660156 C 210.683594 265.699219 214.695312 265.71875 218.640625 265.75 C 222.589844 265.75 226.472656 265.910156 230.226562 265.96875 C 237.746094 266.144531 244.757812 266.414062 250.78125 266.75 C 262.808594 267.34375 270.820312 268.195312 270.820312 268.195312 C 270.820312 268.195312 262.808594 269.058594 250.78125 269.652344 C 244.757812 269.980469 237.746094 270.257812 230.226562 270.433594 C 226.472656 270.492188 222.589844 270.652344 218.640625 270.652344 C 214.695312 270.683594 210.683594 270.703125 206.671875 270.730469 C 202.660156 270.703125 198.660156 270.671875 194.707031 270.640625 C 190.765625 270.632812 186.882812 270.492188 183.117188 270.425781 C 175.601562 270.246094 168.589844 269.980469 162.574219 269.652344 C 150.539062 269.046875 142.527344 268.195312 142.527344 268.195312 " fill-opacity="1" fill-rule="nonzero"/><path fill="#ecbc8f" d="M 142.527344 314.089844 C 142.527344 314.089844 150.539062 313.238281 162.574219 312.636719 C 168.589844 312.308594 175.601562 312.039062 183.117188 311.863281 C 186.882812 311.792969 190.765625 311.65625 194.707031 311.644531 C 198.660156 311.613281 202.660156 311.585938 206.671875 311.554688 C 210.683594 311.585938 214.695312 311.605469 218.640625 311.632812 C 222.589844 311.632812 226.472656 311.792969 230.226562 311.851562 C 237.746094 312.03125 244.757812 312.296875 250.78125 312.625 C 262.808594 313.230469 270.820312 314.089844 270.820312 314.089844 C 270.820312 314.089844 262.808594 314.941406 250.78125 315.546875 C 244.757812 315.875 237.746094 316.140625 230.226562 316.320312 C 226.472656 316.386719 222.589844 316.535156 218.640625 316.535156 C 214.695312 316.558594 210.683594 316.597656 206.671875 316.617188 C 202.660156 316.585938 198.660156 316.558594 194.707031 316.527344 C 190.765625 316.515625 186.882812 316.378906 183.117188 316.308594 C 175.601562 316.132812 168.589844 315.863281 162.574219 315.535156 C 150.539062 314.933594 142.527344 314.089844 142.527344 314.089844 " fill-opacity="1" fill-rule="nonzero"/><path fill="#302065" d="M 465.230469 514.1875 L 291.808594 514.1875 L 291.808594 26.730469 L 465.230469 26.730469 L 465.230469 514.1875 " fill-opacity="1" fill-rule="nonzero"/><path fill="#f7e1cb" d="M 456.386719 368.214844 L 300.65625 368.214844 L 300.65625 38.238281 L 456.386719 38.238281 L 456.386719 368.214844 " fill-opacity="1" fill-rule="nonzero"/><path fill="#cac9c9" d="M 423.648438 436.34375 C 423.648438 461.261719 403.441406 481.457031 378.519531 481.457031 C 353.597656 481.457031 333.390625 461.261719 333.390625 436.34375 C 333.390625 411.425781 353.597656 391.222656 378.519531 391.222656 C 403.441406 391.222656 423.648438 411.425781 423.648438 436.34375 " fill-opacity="1" fill-rule="nonzero"/><path fill="#1a1816" d="M 407.523438 436.34375 C 407.523438 452.359375 394.535156 465.34375 378.519531 465.34375 C 362.503906 465.34375 349.515625 452.359375 349.515625 436.34375 C 349.515625 420.320312 362.503906 407.34375 378.519531 407.34375 C 394.535156 407.34375 407.523438 420.320312 407.523438 436.34375 " fill-opacity="1" fill-rule="nonzero"/><path fill="#ecbc8f" d="M 314.375 82.441406 C 314.375 82.441406 322.386719 81.589844 334.421875 80.992188 C 340.433594 80.667969 347.445312 80.398438 354.964844 80.210938 C 358.730469 80.140625 362.613281 80.003906 366.554688 79.992188 C 370.507812 79.964844 374.507812 79.933594 378.519531 79.90625 C 382.53125 79.933594 386.542969 79.964844 390.484375 79.992188 C 394.4375 79.992188 398.320312 80.140625 402.074219 80.210938 C 409.59375 80.390625 416.605469 80.65625 422.628906 80.984375 C 434.652344 81.589844 442.667969 82.441406 442.667969 82.441406 C 442.667969 82.441406 434.652344 83.292969 422.628906 83.894531 C 416.605469 84.222656 409.59375 84.5 402.074219 84.667969 C 398.320312 84.738281 394.4375 84.886719 390.484375 84.886719 C 386.542969 84.914062 382.53125 84.945312 378.519531 84.976562 C 374.507812 84.945312 370.507812 84.914062 366.554688 84.886719 C 362.613281 84.875 358.730469 84.738281 354.964844 84.667969 C 347.445312 84.488281 340.433594 84.210938 334.421875 83.886719 C 322.386719 83.292969 314.375 82.441406 314.375 82.441406 " fill-opacity="1" fill-rule="nonzero"/><path fill="#ecbc8f" d="M 314.375 128.324219 C 314.375 128.324219 322.386719 127.472656 334.421875 126.878906 C 340.433594 126.550781 347.445312 126.285156 354.964844 126.097656 C 358.730469 126.035156 362.613281 125.886719 366.554688 125.878906 C 370.507812 125.847656 374.507812 125.820312 378.519531 125.789062 C 382.53125 125.820312 386.542969 125.847656 390.484375 125.878906 C 394.4375 125.878906 398.320312 126.027344 402.074219 126.097656 C 409.59375 126.273438 416.605469 126.542969 422.628906 126.867188 C 434.652344 127.472656 442.667969 128.324219 442.667969 128.324219 C 442.667969 128.324219 434.652344 129.175781 422.628906 129.78125 C 416.605469 130.105469 409.59375 130.382812 402.074219 130.5625 C 398.320312 130.621094 394.4375 130.769531 390.484375 130.769531 C 386.542969 130.800781 382.53125 130.828125 378.519531 130.859375 C 374.507812 130.828125 370.507812 130.800781 366.554688 130.769531 C 362.613281 130.761719 358.730469 130.621094 354.964844 130.550781 C 347.445312 130.375 340.433594 130.097656 334.421875 129.769531 C 322.386719 129.175781 314.375 128.324219 314.375 128.324219 " fill-opacity="1" fill-rule="nonzero"/><path fill="#ecbc8f" d="M 314.375 220.46875 C 314.375 220.46875 322.386719 219.628906 334.421875 219.023438 C 340.433594 218.695312 347.445312 218.429688 354.964844 218.25 C 358.730469 218.183594 362.613281 218.042969 366.554688 218.035156 C 370.507812 217.992188 374.507812 217.972656 378.519531 217.945312 C 382.53125 217.964844 386.542969 217.992188 390.484375 218.023438 C 394.4375 218.023438 398.320312 218.171875 402.074219 218.242188 C 409.59375 218.417969 416.605469 218.6875 422.628906 219.015625 C 434.652344 219.617188 442.667969 220.46875 442.667969 220.46875 C 442.667969 220.46875 434.652344 221.332031 422.628906 221.925781 C 416.605469 222.261719 409.59375 222.53125 402.074219 222.707031 C 398.320312 222.765625 394.4375 222.925781 390.484375 222.925781 C 386.542969 222.945312 382.53125 222.976562 378.519531 223.003906 C 374.507812 222.976562 370.507812 222.945312 366.554688 222.914062 C 362.613281 222.90625 358.730469 222.765625 354.964844 222.699219 C 347.445312 222.519531 340.433594 222.253906 334.421875 221.925781 C 322.386719 221.320312 314.375 220.46875 314.375 220.46875 " fill-opacity="1" fill-rule="nonzero"/><path fill="#ecbc8f" d="M 314.375 174.585938 C 314.375 174.585938 322.386719 173.742188 334.421875 173.140625 C 340.433594 172.8125 347.445312 172.546875 354.964844 172.355469 C 358.730469 172.296875 362.613281 172.148438 366.554688 172.140625 C 370.507812 172.109375 374.507812 172.089844 378.519531 172.050781 C 382.53125 172.078125 386.542969 172.109375 390.484375 172.140625 C 394.4375 172.140625 398.320312 172.289062 402.074219 172.355469 C 409.59375 172.535156 416.605469 172.800781 422.628906 173.128906 C 434.652344 173.734375 442.667969 174.585938 442.667969 174.585938 C 442.667969 174.585938 434.652344 175.4375 422.628906 176.042969 C 416.605469 176.367188 409.59375 176.644531 402.074219 176.824219 C 398.320312 176.882812 394.4375 177.042969 390.484375 177.042969 C 386.542969 177.0625 382.53125 177.089844 378.519531 177.121094 C 374.507812 177.089844 370.507812 177.0625 366.554688 177.03125 C 362.613281 177.023438 358.730469 176.882812 354.964844 176.8125 C 347.445312 176.636719 340.433594 176.367188 334.421875 176.042969 C 322.386719 175.4375 314.375 174.585938 314.375 174.585938 " fill-opacity="1" fill-rule="nonzero"/><path fill="#ecbc8f" d="M 314.375 268.195312 C 314.375 268.195312 322.386719 267.355469 334.421875 266.75 C 340.433594 266.421875 347.445312 266.15625 354.964844 265.96875 C 358.730469 265.910156 362.613281 265.761719 366.554688 265.75 C 370.507812 265.730469 374.507812 265.699219 378.519531 265.660156 C 382.53125 265.699219 386.542969 265.71875 390.484375 265.75 C 394.4375 265.75 398.320312 265.910156 402.074219 265.96875 C 409.59375 266.144531 416.605469 266.414062 422.628906 266.75 C 434.652344 267.34375 442.667969 268.195312 442.667969 268.195312 C 442.667969 268.195312 434.652344 269.058594 422.628906 269.652344 C 416.605469 269.980469 409.59375 270.257812 402.074219 270.433594 C 398.320312 270.492188 394.4375 270.652344 390.484375 270.652344 C 386.542969 270.683594 382.53125 270.703125 378.519531 270.730469 C 374.507812 270.703125 370.507812 270.671875 366.554688 270.640625 C 362.613281 270.632812 358.730469 270.492188 354.964844 270.425781 C 347.445312 270.246094 340.433594 269.980469 334.421875 269.652344 C 322.386719 269.046875 314.375 268.195312 314.375 268.195312 " fill-opacity="1" fill-rule="nonzero"/><path fill="#ecbc8f" d="M 314.375 314.089844 C 314.375 314.089844 322.386719 313.238281 334.421875 312.636719 C 340.433594 312.308594 347.445312 312.039062 354.964844 311.863281 C 358.730469 311.792969 362.613281 311.65625 366.554688 311.644531 C 370.507812 311.613281 374.507812 311.585938 378.519531 311.554688 C 382.53125 311.585938 386.542969 311.605469 390.484375 311.632812 C 394.4375 311.632812 398.320312 311.792969 402.074219 311.851562 C 409.59375 312.03125 416.605469 312.296875 422.628906 312.625 C 434.652344 313.230469 442.667969 314.089844 442.667969 314.089844 C 442.667969 314.089844 434.652344 314.941406 422.628906 315.546875 C 416.605469 315.875 409.59375 316.140625 402.074219 316.320312 C 398.320312 316.386719 394.4375 316.535156 390.484375 316.535156 C 386.542969 316.558594 382.53125 316.597656 378.519531 316.617188 C 374.507812 316.585938 370.507812 316.558594 366.554688 316.527344 C 362.613281 316.515625 358.730469 316.378906 354.964844 316.308594 C 347.445312 316.132812 340.433594 315.863281 334.421875 315.535156 C 322.386719 314.933594 314.375 314.089844 314.375 314.089844 " fill-opacity="1" fill-rule="nonzero"/><path fill="#21588f" d="M 637.78125 514.1875 L 464.359375 514.1875 L 464.359375 26.730469 L 637.78125 26.730469 L 637.78125 514.1875 " fill-opacity="1" fill-rule="nonzero"/><path fill="#f7e1cb" d="M 628.933594 368.214844 L 473.203125 368.214844 L 473.203125 38.238281 L 628.933594 38.238281 L 628.933594 368.214844 " fill-opacity="1" fill-rule="nonzero"/><path fill="#cac9c9" d="M 596.1875 436.34375 C 596.1875 461.261719 575.992188 481.457031 551.070312 481.457031 C 526.148438 481.457031 505.941406 461.261719 505.941406 436.34375 C 505.941406 411.425781 526.148438 391.222656 551.070312 391.222656 C 575.992188 391.222656 596.1875 411.425781 596.1875 436.34375 " fill-opacity="1" fill-rule="nonzero"/><path fill="#1a1816" d="M 580.070312 436.34375 C 580.070312 452.359375 567.085938 465.34375 551.070312 465.34375 C 535.050781 465.34375 522.066406 452.359375 522.066406 436.34375 C 522.066406 420.320312 535.050781 407.34375 551.070312 407.34375 C 567.085938 407.34375 580.070312 420.320312 580.070312 436.34375 " fill-opacity="1" fill-rule="nonzero"/><path fill="#ecbc8f" d="M 486.921875 82.441406 C 486.921875 82.441406 494.9375 81.589844 506.960938 80.992188 C 512.984375 80.667969 519.996094 80.398438 527.515625 80.210938 C 531.269531 80.140625 535.152344 80.003906 539.105469 79.992188 C 543.046875 79.964844 547.058594 79.933594 551.070312 79.90625 C 555.082031 79.933594 559.082031 79.964844 563.035156 79.992188 C 566.976562 79.992188 570.859375 80.140625 574.625 80.210938 C 582.140625 80.390625 589.15625 80.65625 595.167969 80.984375 C 607.203125 81.589844 615.214844 82.441406 615.214844 82.441406 C 615.214844 82.441406 607.203125 83.292969 595.167969 83.894531 C 589.15625 84.222656 582.140625 84.5 574.625 84.667969 C 570.859375 84.738281 566.976562 84.886719 563.035156 84.886719 C 559.082031 84.914062 555.082031 84.945312 551.070312 84.976562 C 547.058594 84.945312 543.046875 84.914062 539.105469 84.886719 C 535.152344 84.875 531.269531 84.738281 527.515625 84.667969 C 519.996094 84.488281 512.984375 84.210938 506.960938 83.886719 C 494.9375 83.292969 486.921875 82.441406 486.921875 82.441406 " fill-opacity="1" fill-rule="nonzero"/><path fill="#ecbc8f" d="M 486.921875 128.324219 C 486.921875 128.324219 494.9375 127.472656 506.960938 126.878906 C 512.984375 126.550781 519.996094 126.285156 527.515625 126.097656 C 531.269531 126.035156 535.152344 125.886719 539.105469 125.878906 C 543.046875 125.847656 547.058594 125.820312 551.070312 125.789062 C 555.082031 125.820312 559.082031 125.847656 563.035156 125.878906 C 566.976562 125.878906 570.859375 126.027344 574.625 126.097656 C 582.140625 126.273438 589.15625 126.542969 595.167969 126.867188 C 607.203125 127.472656 615.214844 128.324219 615.214844 128.324219 C 615.214844 128.324219 607.203125 129.175781 595.167969 129.78125 C 589.15625 130.105469 582.140625 130.382812 574.625 130.5625 C 570.859375 130.621094 566.976562 130.769531 563.035156 130.769531 C 559.082031 130.800781 555.082031 130.828125 551.070312 130.859375 C 547.058594 130.828125 543.046875 130.800781 539.105469 130.769531 C 535.152344 130.761719 531.269531 130.621094 527.515625 130.550781 C 519.996094 130.375 512.984375 130.097656 506.960938 129.769531 C 494.9375 129.175781 486.921875 128.324219 486.921875 128.324219 " fill-opacity="1" fill-rule="nonzero"/><path fill="#ecbc8f" d="M 486.921875 220.46875 C 486.921875 220.46875 494.9375 219.628906 506.960938 219.023438 C 512.984375 218.695312 519.996094 218.429688 527.515625 218.25 C 531.269531 218.183594 535.152344 218.042969 539.105469 218.035156 C 543.046875 217.992188 547.058594 217.972656 551.070312 217.945312 C 555.082031 217.964844 559.082031 217.992188 563.035156 218.023438 C 566.976562 218.023438 570.859375 218.171875 574.625 218.242188 C 582.140625 218.417969 589.15625 218.6875 595.167969 219.015625 C 607.203125 219.617188 615.214844 220.46875 615.214844 220.46875 C 615.214844 220.46875 607.203125 221.332031 595.167969 221.925781 C 589.15625 222.261719 582.140625 222.53125 574.625 222.707031 C 570.859375 222.765625 566.976562 222.925781 563.035156 222.925781 C 559.082031 222.945312 555.082031 222.976562 551.070312 223.003906 C 547.058594 222.976562 543.046875 222.945312 539.105469 222.914062 C 535.152344 222.90625 531.269531 222.765625 527.515625 222.699219 C 519.996094 222.519531 512.984375 222.253906 506.960938 221.925781 C 494.9375 221.320312 486.921875 220.46875 486.921875 220.46875 " fill-opacity="1" fill-rule="nonzero"/><path fill="#ecbc8f" d="M 486.921875 174.585938 C 486.921875 174.585938 494.9375 173.742188 506.960938 173.140625 C 512.984375 172.8125 519.996094 172.546875 527.515625 172.355469 C 531.269531 172.296875 535.152344 172.148438 539.105469 172.140625 C 543.046875 172.109375 547.058594 172.089844 551.070312 172.050781 C 555.082031 172.078125 559.082031 172.109375 563.035156 172.140625 C 566.976562 172.140625 570.859375 172.289062 574.625 172.355469 C 582.140625 172.535156 589.15625 172.800781 595.167969 173.128906 C 607.203125 173.734375 615.214844 174.585938 615.214844 174.585938 C 615.214844 174.585938 607.203125 175.4375 595.167969 176.042969 C 589.15625 176.367188 582.140625 176.644531 574.625 176.824219 C 570.859375 176.882812 566.976562 177.042969 563.035156 177.042969 C 559.082031 177.0625 555.082031 177.089844 551.070312 177.121094 C 547.058594 177.089844 543.046875 177.0625 539.105469 177.03125 C 535.152344 177.023438 531.269531 176.882812 527.515625 176.8125 C 519.996094 176.636719 512.984375 176.367188 506.960938 176.042969 C 494.9375 175.4375 486.921875 174.585938 486.921875 174.585938 " fill-opacity="1" fill-rule="nonzero"/><path fill="#ecbc8f" d="M 486.921875 268.195312 C 486.921875 268.195312 494.9375 267.355469 506.960938 266.75 C 512.984375 266.421875 519.996094 266.15625 527.515625 265.96875 C 531.269531 265.910156 535.152344 265.761719 539.105469 265.75 C 543.046875 265.730469 547.058594 265.699219 551.070312 265.660156 C 555.082031 265.699219 559.082031 265.71875 563.035156 265.75 C 566.976562 265.75 570.859375 265.910156 574.625 265.96875 C 582.140625 266.144531 589.15625 266.414062 595.167969 266.75 C 607.203125 267.34375 615.214844 268.195312 615.214844 268.195312 C 615.214844 268.195312 607.203125 269.058594 595.167969 269.652344 C 589.15625 269.980469 582.140625 270.257812 574.625 270.433594 C 570.859375 270.492188 566.976562 270.652344 563.035156 270.652344 C 559.082031 270.683594 555.082031 270.703125 551.070312 270.730469 C 547.058594 270.703125 543.046875 270.671875 539.105469 270.640625 C 535.152344 270.632812 531.269531 270.492188 527.515625 270.425781 C 519.996094 270.246094 512.984375 269.980469 506.960938 269.652344 C 494.9375 269.046875 486.921875 268.195312 486.921875 268.195312 " fill-opacity="1" fill-rule="nonzero"/><path fill="#ecbc8f" d="M 486.921875 314.089844 C 486.921875 314.089844 494.9375 313.238281 506.960938 312.636719 C 512.984375 312.308594 519.996094 312.039062 527.515625 311.863281 C 531.269531 311.792969 535.152344 311.65625 539.105469 311.644531 C 543.046875 311.613281 547.058594 311.585938 551.070312 311.554688 C 555.082031 311.585938 559.082031 311.605469 563.035156 311.632812 C 566.976562 311.632812 570.859375 311.792969 574.625 311.851562 C 582.140625 312.03125 589.15625 312.296875 595.167969 312.625 C 607.203125 313.230469 615.214844 314.089844 615.214844 314.089844 C 615.214844 314.089844 607.203125 314.941406 595.167969 315.546875 C 589.15625 315.875 582.140625 316.140625 574.625 316.320312 C 570.859375 316.386719 566.976562 316.535156 563.035156 316.535156 C 559.082031 316.558594 555.082031 316.597656 551.070312 316.617188 C 547.058594 316.585938 543.046875 316.558594 539.105469 316.527344 C 535.152344 316.515625 531.269531 316.378906 527.515625 316.308594 C 519.996094 316.132812 512.984375 315.863281 506.960938 315.535156 C 494.9375 314.933594 486.921875 314.089844 486.921875 314.089844 " fill-opacity="1" fill-rule="nonzero"/><g clip-path="url(#151c93e985)"><path fill="#9f1b20" d="M 904.328125 478.453125 L 734.285156 512.503906 L 638.542969 34.542969 L 808.585938 0.484375 L 904.328125 478.453125 " fill-opacity="1" fill-rule="nonzero"/></g><path fill="#f7e1cb" d="M 866.976562 337.058594 L 714.289062 367.640625 L 649.476562 44.082031 L 802.167969 13.507812 L 866.976562 337.058594 " fill-opacity="1" fill-rule="nonzero"/><path fill="#cac9c9" d="M 848.265625 410.285156 C 853.160156 434.71875 837.320312 458.488281 812.875 463.390625 C 788.4375 468.285156 764.664062 452.4375 759.773438 428.003906 C 754.878906 403.570312 770.71875 379.800781 795.152344 374.910156 C 819.589844 370.007812 843.371094 385.855469 848.265625 410.285156 " fill-opacity="1" fill-rule="nonzero"/><path fill="#1a1816" d="M 832.457031 413.445312 C 835.597656 429.152344 825.414062 444.433594 809.714844 447.574219 C 794.003906 450.722656 778.722656 440.542969 775.582031 424.84375 C 772.429688 409.136719 782.613281 393.855469 798.324219 390.714844 C 814.023438 387.566406 829.308594 397.75 832.457031 413.445312 " fill-opacity="1" fill-rule="nonzero"/><path fill="#ecbc8f" d="M 671.605469 84.738281 C 671.605469 84.738281 679.300781 82.332031 690.972656 79.378906 C 696.804688 77.875 703.628906 76.230469 710.96875 74.585938 C 714.644531 73.773438 718.417969 72.871094 722.292969 72.089844 C 726.152344 71.289062 730.078125 70.476562 734.007812 69.652344 C 737.941406 68.890625 741.882812 68.140625 745.757812 67.386719 C 749.628906 66.613281 753.464844 66 757.15625 65.324219 C 764.566406 64.019531 771.5 62.910156 777.464844 62.046875 C 789.371094 60.285156 797.402344 59.542969 797.402344 59.542969 C 797.402344 59.542969 789.707031 61.949219 778.027344 64.910156 C 772.203125 66.40625 765.378906 68.050781 758.039062 69.703125 C 754.363281 70.503906 750.589844 71.417969 746.71875 72.1875 C 742.855469 72.992188 738.921875 73.804688 735 74.625 C 731.066406 75.378906 727.125 76.140625 723.253906 76.882812 C 719.378906 77.65625 715.546875 78.28125 711.839844 78.945312 C 704.441406 80.25 697.507812 81.359375 691.546875 82.222656 C 679.628906 83.996094 671.605469 84.738281 671.605469 84.738281 " fill-opacity="1" fill-rule="nonzero"/><path fill="#ecbc8f" d="M 680.621094 129.730469 C 680.621094 129.730469 688.316406 127.324219 699.984375 124.371094 C 705.820312 122.867188 712.652344 121.222656 719.984375 119.570312 C 723.65625 118.765625 727.441406 117.867188 731.304688 117.082031 C 735.167969 116.28125 739.089844 115.460938 743.023438 114.648438 C 746.957031 113.882812 750.898438 113.132812 754.769531 112.378906 C 758.632812 111.605469 762.476562 110.992188 766.171875 110.320312 C 773.582031 109.011719 780.515625 107.902344 786.476562 107.039062 C 798.382812 105.269531 806.417969 104.535156 806.417969 104.535156 C 806.417969 104.535156 798.71875 106.941406 787.042969 109.902344 C 781.21875 111.398438 774.382812 113.042969 767.054688 114.695312 C 763.378906 115.5 759.59375 116.410156 755.730469 117.183594 C 751.867188 117.984375 747.9375 118.796875 744.011719 119.617188 C 740.082031 120.371094 736.140625 121.132812 732.265625 121.878906 C 728.394531 122.640625 724.558594 123.261719 720.855469 123.9375 C 713.457031 125.234375 706.523438 126.351562 700.558594 127.214844 C 688.644531 128.988281 680.621094 129.730469 680.621094 129.730469 " fill-opacity="1" fill-rule="nonzero"/><path fill="#ecbc8f" d="M 698.714844 220.082031 C 698.714844 220.082031 706.414062 217.675781 718.089844 214.726562 C 723.914062 213.21875 730.75 211.574219 738.082031 209.921875 C 741.753906 209.121094 745.539062 208.21875 749.402344 207.4375 C 753.265625 206.632812 757.1875 205.8125 761.121094 205 C 765.050781 204.238281 768.996094 203.484375 772.867188 202.730469 C 776.742188 201.960938 780.574219 201.34375 784.269531 200.671875 C 791.675781 199.363281 798.609375 198.253906 804.574219 197.394531 C 816.480469 195.621094 824.511719 194.886719 824.511719 194.886719 C 824.511719 194.886719 816.816406 197.292969 805.148438 200.246094 C 799.3125 201.75 792.488281 203.394531 785.148438 205.050781 C 781.476562 205.851562 777.699219 206.761719 773.828125 207.535156 C 769.964844 208.335938 766.042969 209.148438 762.109375 209.972656 C 758.179688 210.722656 754.234375 211.488281 750.363281 212.230469 C 746.488281 212.992188 742.65625 213.617188 738.960938 214.289062 C 731.550781 215.585938 724.617188 216.707031 718.65625 217.566406 C 706.75 219.339844 698.714844 220.082031 698.714844 220.082031 " fill-opacity="1" fill-rule="nonzero"/><path fill="#ecbc8f" d="M 689.703125 175.089844 C 689.703125 175.089844 697.398438 172.683594 709.078125 169.730469 C 714.910156 168.226562 721.738281 166.59375 729.066406 164.9375 C 732.742188 164.125 736.523438 163.226562 740.386719 162.441406 C 744.25 161.640625 748.183594 160.828125 752.105469 160.007812 C 756.039062 159.246094 759.980469 158.492188 763.855469 157.738281 C 767.726562 156.964844 771.558594 156.351562 775.265625 155.679688 C 782.664062 154.371094 789.597656 153.261719 795.558594 152.402344 C 807.476562 150.636719 815.5 149.894531 815.5 149.894531 C 815.5 149.894531 807.804688 152.300781 796.136719 155.261719 C 790.300781 156.769531 783.476562 158.402344 776.136719 160.054688 C 772.460938 160.859375 768.6875 161.769531 764.8125 162.542969 C 760.953125 163.34375 757.027344 164.167969 753.097656 164.976562 C 749.164062 165.742188 745.230469 166.492188 741.347656 167.238281 C 737.476562 168.007812 733.644531 168.632812 729.949219 169.296875 C 722.539062 170.605469 715.605469 171.714844 709.640625 172.574219 C 697.734375 174.347656 689.703125 175.089844 689.703125 175.089844 " fill-opacity="1" fill-rule="nonzero"/><path fill="#ecbc8f" d="M 708.085938 266.878906 C 708.085938 266.878906 715.785156 264.472656 727.460938 261.519531 C 733.296875 260.015625 740.121094 258.371094 747.460938 256.726562 C 751.125 255.914062 754.910156 255.015625 758.78125 254.230469 C 762.644531 253.429688 766.566406 252.617188 770.488281 251.796875 C 774.433594 251.042969 778.363281 250.28125 782.238281 249.527344 C 786.109375 248.753906 789.945312 248.140625 793.648438 247.46875 C 801.046875 246.160156 807.992188 245.050781 813.945312 244.1875 C 825.859375 242.425781 833.894531 241.683594 833.894531 241.683594 C 833.894531 241.683594 826.195312 244.101562 814.519531 247.050781 C 808.683594 248.546875 801.859375 250.191406 794.53125 251.84375 C 790.855469 252.648438 787.070312 253.558594 783.199219 254.332031 C 779.335938 255.132812 775.414062 255.957031 771.492188 256.765625 C 767.546875 257.519531 763.617188 258.28125 759.734375 259.023438 C 755.871094 259.796875 752.027344 260.421875 748.332031 261.085938 C 740.921875 262.394531 733.988281 263.5 728.035156 264.363281 C 716.121094 266.136719 708.085938 266.878906 708.085938 266.878906 " fill-opacity="1" fill-rule="nonzero"/><path fill="#ecbc8f" d="M 717.101562 311.871094 C 717.101562 311.871094 724.796875 309.464844 736.476562 306.515625 C 742.308594 305.007812 749.132812 303.363281 756.464844 301.710938 C 760.140625 300.910156 763.921875 300.007812 767.785156 299.226562 C 771.660156 298.421875 775.582031 297.601562 779.503906 296.789062 C 783.445312 296.027344 787.378906 295.273438 791.25 294.519531 C 795.125 293.75 798.96875 293.132812 802.664062 292.460938 C 810.070312 291.152344 816.996094 290.042969 822.957031 289.183594 C 834.875 287.410156 842.898438 286.675781 842.898438 286.675781 C 842.898438 286.675781 835.210938 289.082031 823.53125 292.042969 C 817.699219 293.539062 810.875 295.183594 803.535156 296.839844 C 799.867188 297.640625 796.085938 298.550781 792.210938 299.324219 C 788.347656 300.125 784.425781 300.9375 780.503906 301.761719 C 776.5625 302.511719 772.628906 303.277344 768.757812 304.019531 C 764.882812 304.78125 761.039062 305.40625 757.347656 306.078125 C 749.9375 307.375 743.003906 308.496094 737.039062 309.355469 C 725.132812 311.128906 717.101562 311.871094 717.101562 311.871094 " fill-opacity="1" fill-rule="nonzero"/><path fill="#c4c3c3" d="M 945.289062 538.648438 L 79.003906 538.648438 C 70.636719 538.648438 63.789062 531.808594 63.789062 523.4375 L 63.789062 521.792969 C 63.789062 513.425781 70.636719 506.582031 79.003906 506.582031 L 945.289062 506.582031 C 953.65625 506.582031 960.503906 513.425781 960.503906 521.792969 L 960.503906 523.4375 C 960.503906 531.808594 953.65625 538.648438 945.289062 538.648438 " fill-opacity="1" fill-rule="nonzero"/><g clip-path="url(#f43ba08d30)"><path fill="#693118" d="M 958.769531 575.511719 L 938.414062 575.511719 C 934.222656 575.511719 930.785156 572.074219 930.785156 567.875 L 930.785156 408.910156 C 930.785156 404.710938 934.222656 401.273438 938.414062 401.273438 L 958.769531 401.273438 C 962.96875 401.273438 966.394531 404.710938 966.394531 408.910156 L 966.394531 567.875 C 966.394531 572.074219 962.96875 575.511719 958.769531 575.511719 " fill-opacity="1" fill-rule="nonzero"/></g><g clip-path="url(#3362adc47d)"><path fill="#693118" d="M 65.523438 575.511719 L 85.878906 575.511719 C 90.078125 575.511719 93.507812 572.074219 93.507812 567.875 L 93.507812 408.910156 C 93.507812 404.710938 90.078125 401.273438 85.878906 401.273438 L 65.523438 401.273438 C 61.335938 401.273438 57.898438 404.710938 57.898438 408.910156 L 57.898438 567.875 C 57.898438 572.074219 61.335938 575.511719 65.523438 575.511719 " fill-opacity="1" fill-rule="nonzero"/></g><g fill="#6d5126" fill-opacity="1"><g transform="translate(61.344316, 557.174284)"><g><path d="M 3.421875 0.109375 C 2.929688 0.109375 2.488281 0.0390625 2.09375 -0.09375 C 1.707031 -0.226562 1.382812 -0.398438 1.125 -0.609375 C 0.863281 -0.828125 0.664062 -1.066406 0.53125 -1.328125 L 1.046875 -1.953125 L 1.171875 -1.953125 C 1.660156 -1.128906 2.410156 -0.71875 3.421875 -0.71875 C 4.015625 -0.71875 4.453125 -0.835938 4.734375 -1.078125 C 5.023438 -1.328125 5.171875 -1.675781 5.171875 -2.125 C 5.171875 -2.375 5.125 -2.585938 5.03125 -2.765625 C 4.9375 -2.953125 4.78125 -3.109375 4.5625 -3.234375 C 4.34375 -3.359375 4.046875 -3.46875 3.671875 -3.5625 L 2.75 -3.78125 C 2.070312 -3.945312 1.570312 -4.207031 1.25 -4.5625 C 0.925781 -4.925781 0.765625 -5.382812 0.765625 -5.9375 C 0.765625 -6.320312 0.863281 -6.664062 1.0625 -6.96875 C 1.257812 -7.28125 1.550781 -7.519531 1.9375 -7.6875 C 2.320312 -7.863281 2.785156 -7.953125 3.328125 -7.953125 C 3.910156 -7.953125 4.40625 -7.867188 4.8125 -7.703125 C 5.21875 -7.535156 5.546875 -7.285156 5.796875 -6.953125 L 5.34375 -6.34375 L 5.203125 -6.34375 C 4.984375 -6.625 4.71875 -6.828125 4.40625 -6.953125 C 4.101562 -7.085938 3.742188 -7.15625 3.328125 -7.15625 C 2.785156 -7.15625 2.375 -7.046875 2.09375 -6.828125 C 1.8125 -6.617188 1.671875 -6.328125 1.671875 -5.953125 C 1.671875 -5.597656 1.773438 -5.316406 1.984375 -5.109375 C 2.191406 -4.898438 2.535156 -4.738281 3.015625 -4.625 L 3.953125 -4.40625 C 4.710938 -4.226562 5.265625 -3.953125 5.609375 -3.578125 C 5.953125 -3.210938 6.125 -2.738281 6.125 -2.15625 C 6.125 -1.71875 6.023438 -1.328125 5.828125 -0.984375 C 5.628906 -0.640625 5.328125 -0.367188 4.921875 -0.171875 C 4.515625 0.015625 4.015625 0.109375 3.421875 0.109375 Z M 3.421875 0.109375 "/></g></g></g><g fill="#6d5126" fill-opacity="1"><g transform="translate(68.066235, 557.174284)"><g><path d="M 2.109375 0 L 1.1875 0 L 1.1875 -7.84375 L 2.109375 -7.84375 Z M 2.109375 0 "/></g></g></g><g fill="#6d5126" fill-opacity="1"><g transform="translate(71.365502, 557.174284)"><g><path d="M 7.0625 0 L 6.078125 0 L 5.34375 -2.15625 L 2 -2.15625 L 1.28125 0 L 0.3125 0 L 3.046875 -7.84375 L 4.328125 -7.84375 Z M 3.609375 -6.890625 L 2.265625 -2.921875 L 5.078125 -2.921875 L 3.75 -6.890625 Z M 3.609375 -6.890625 "/></g></g></g><g fill="#6d5126" fill-opacity="1"><g transform="translate(78.736545, 557.174284)"><g><path d="M 3.984375 -7.84375 C 4.523438 -7.84375 4.988281 -7.742188 5.375 -7.546875 C 5.757812 -7.359375 6.050781 -7.082031 6.25 -6.71875 C 6.457031 -6.363281 6.5625 -5.941406 6.5625 -5.453125 C 6.5625 -4.960938 6.457031 -4.539062 6.25 -4.1875 C 6.050781 -3.832031 5.757812 -3.554688 5.375 -3.359375 C 4.988281 -3.160156 4.523438 -3.0625 3.984375 -3.0625 L 2.109375 -3.0625 L 2.109375 0 L 1.1875 0 L 1.1875 -7.84375 Z M 3.96875 -3.859375 C 5.050781 -3.859375 5.59375 -4.390625 5.59375 -5.453125 C 5.59375 -6.523438 5.050781 -7.0625 3.96875 -7.0625 L 2.109375 -7.0625 L 2.109375 -3.859375 Z M 3.96875 -3.859375 "/></g></g></g></svg>